<svg xmlns="http://www.w3.org/2000/svg" viewBox="0 0 45 45"><path d="M22.5 2A20.5 20.5 0 1043 22.5 20.52 20.52 0 0022.5 2zm-4.23 28.79A33.67 33.67 0 0022 31a34.54 34.54 0 004.76-.33 30.45 30.45 0 01-4.26 9 30.41 30.41 0 01-4.23-8.88zM22 28a29.86 29.86 0 01-4.47-.34A31 31 0 0117 22a29.87 29.87 0 01.36-4.64A30.13 30.13 0 0122 17a31 31 0 015.66.53A29.85 29.85 0 0128 22a31 31 0 01-.5 5.5 31 31 0 01-5.5.5zm-7.64-1a25.22 25.22 0 01-9.15-4.5 24.89 24.89 0 019-4.48A33.56 33.56 0 0014 22a34.61 34.61 0 00.36 5zM22.5 5.21a25.25 25.25 0 014.5 9.15 34.61 34.61 0 00-5-.36 33.58 33.58 0 00-4 .24 25.24 25.24 0 014.5-9.03zm8.29 13.06a30.41 30.41 0 018.89 4.23 30.46 30.46 0 01-9 4.26A34.54 34.54 0 0031 22a33.67 33.67 0 00-.21-3.73zm8.82.59A33.75 33.75 0 0030.26 15a29.2 29.2 0 00-3.89-9.56 17.54 17.54 0 0113.24 13.42zm-21-13.41a29.16 29.16 0 00-3.85 9.35 29.16 29.16 0 00-9.35 3.85A17.54 17.54 0 0118.64 5.44zM5.44 26.36a29.2 29.2 0 009.56 3.9 33.75 33.75 0 003.86 9.36A17.54 17.54 0 015.44 26.36zm20.7 13.25a33.73 33.73 0 003.91-9.56 33.73 33.73 0 009.56-3.91 17.55 17.55 0 01-13.47 13.47z"  fill="#FFFFFF"></path> </svg>